<?xml version="1.0" standalone="no"?>
<!DOCTYPE svg PUBLIC "-//W3C//DTD SVG 20010904//EN"
 "http://www.w3.org/TR/2001/REC-SVG-20010904/DTD/svg10.dtd">
<svg version="1.0" xmlns="http://www.w3.org/2000/svg"
 width="800.000000pt" height="800.000000pt" viewBox="0 0 800.000000 800.000000"
 preserveAspectRatio="xMidYMid meet">
<metadata>
Created by potrace 1.11, written by Peter Selinger 2001-2013
</metadata>
<g transform="translate(0.000000,800.000000) scale(0.100000,-0.100000)"
fill="#000000" stroke="none">
<path d="M5928 7085 c-2 -2 -25 -5 -53 -8 -230 -26 -403 -219 -406 -453 -2
-121 47 -246 128 -328 37 -38 121 -96 156 -109 9 -3 17 -17 18 -29 2 -77 -2
-382 -5 -387 -2 -3 -875 -6 -1940 -6 l-1936 0 -1 -40 c0 -22 -1 -206 -2 -410
l-2 -370 -188 -1 -188 -1 -26 54 c-33 66 -124 160 -186 191 -26 13 -48 22 -50
20 -2 -2 -10 2 -18 9 -14 12 -73 23 -144 28 -93 7 -243 -45 -316 -108 -204
-180 -216 -491 -25 -681 161 -160 407 -184 589 -57 72 51 108 91 147 164 23
42 37 57 53 58 12 0 168 1 347 2 l325 2 2 355 c1 195 2 380 3 410 l0 55 1778
0 1777 0 0 -1170 0 -1170 362 -3 362 -2 31 -59 c108 -203 359 -296 571 -214
189 74 303 243 298 442 -3 138 -47 238 -144 330 -55 53 -151 104 -215 117 -68
13 -167 10 -235 -9 -108 -29 -229 -130 -280 -234 l-26 -53 -199 0 -200 0 0 23
c-1 31 -1 1052 0 1964 l1 773 53 25 c55 26 125 87 169 146 42 57 78 164 81
244 6 139 -39 252 -138 350 -61 62 -98 85 -171 110 -38 13 -152 35 -157 30z
m72 -343 c41 -20 70 -67 74 -119 5 -65 -35 -119 -106 -144 -79 -27 -178 47
-178 133 0 58 42 123 90 141 31 11 86 6 120 -11z m-4860 -1832 c39 -21 73 -78
73 -124 0 -140 -170 -201 -253 -91 -40 52 -42 115 -6 169 35 54 129 77 186 46z
m5860 -1525 c48 -25 72 -71 67 -131 -4 -58 -28 -96 -74 -119 -123 -60 -252 65
-192 186 40 80 119 105 199 64z"/>
<path d="M3089 5286 c-3 -3 17 -29 43 -58 186 -197 215 -455 70 -606 -142
-148 -321 -179 -493 -86 -52 29 -169 135 -169 154 0 6 -5 10 -11 10 -13 0 -6
-57 12 -109 70 -198 304 -345 522 -327 131 11 243 68 332 169 250 284 95 772
-270 851 -17 4 -33 4 -36 2z"/>
<path d="M3894 4898 c4 -13 9 -50 12 -83 4 -51 3 -57 -8 -41 -51 74 -70 97
-75 93 -3 -3 5 -36 17 -72 16 -49 19 -70 11 -78 -8 -8 -19 -3 -41 21 -32 35
-57 43 -45 15 30 -76 30 -100 0 -69 -43 43 -51 -15 -14 -102 34 -77 42 -135
29 -197 -13 -62 -30 -78 -125 -115 -85 -33 -117 -57 -110 -81 10 -29 -19 -65
-73 -94 -52 -27 -97 -65 -130 -112 -31 -44 -16 -48 37 -9 65 47 141 89 148 83
3 -4 -14 -27 -38 -52 -64 -67 -114 -145 -94 -145 3 0 30 14 60 31 61 34 71 28
24 -17 -17 -16 -37 -41 -45 -56 -13 -25 -13 -28 1 -28 9 0 18 7 21 15 10 24
25 6 18 -21 -8 -32 8 -31 28 4 9 15 27 36 39 47 l22 20 -5 -22 c-10 -40 8 -34
51 17 23 28 49 50 57 50 10 0 2 -16 -24 -47 -52 -62 -80 -116 -88 -169 -8 -55
-28 -60 -91 -24 -90 53 -152 138 -183 253 -7 26 -15 47 -19 47 -3 0 -28 -27
-55 -60 -28 -33 -53 -60 -58 -60 -22 0 11 96 52 147 26 33 25 43 -2 43 -28 0
-71 -26 -119 -71 -66 -63 -67 -64 -87 -46 -32 28 -117 67 -170 77 -65 12 -115
5 -164 -23 -50 -27 -49 -44 1 -39 57 6 59 -12 7 -68 -47 -50 -116 -151 -116
-170 0 -16 15 -12 35 10 34 38 34 20 -1 -50 -19 -39 -32 -75 -29 -80 3 -6 28
17 56 50 51 62 95 97 106 86 3 -3 -7 -23 -24 -44 -27 -34 -73 -113 -73 -127 0
-13 28 -3 45 15 34 37 45 26 38 -39 -10 -96 2 -103 42 -24 34 69 79 122 92
110 3 -4 -3 -26 -15 -49 -12 -24 -24 -55 -28 -70 -9 -39 19 -37 48 2 12 17 25
30 29 30 4 0 7 -19 7 -42 -1 -120 14 -119 36 2 10 50 23 105 31 123 14 32 15
32 14 -33 -2 -124 1 -152 13 -148 6 2 13 13 14 25 2 11 9 33 15 49 l12 29 8
-30 c8 -30 17 -78 18 -102 1 -7 5 -13 10 -13 9 0 21 59 30 143 1 5 5 6 10 2 8
-4 23 -71 26 -109 1 -20 23 -15 29 6 14 55 -1 163 -40 277 -17 51 -14 59 11
31 18 -20 18 -20 42 6 13 15 26 24 29 21 3 -2 0 -24 -5 -48 -13 -54 -14 -119
-3 -119 5 0 14 12 21 26 17 39 22 24 12 -32 -8 -43 -14 -134 -12 -171 2 -32
19 -8 30 42 14 64 31 81 32 33 1 -18 2 -40 3 -48 2 -8 3 -27 4 -42 3 -43 18
-33 28 18 15 75 41 50 43 -43 1 -24 5 -43 11 -43 19 0 32 44 32 116 0 41 4 74
9 74 9 0 10 -3 14 -55 2 -16 3 -36 4 -43 0 -7 6 -10 11 -7 6 3 10 -5 10 -19 0
-19 4 -24 16 -19 12 5 14 -1 10 -34 -6 -50 7 -75 23 -45 6 11 11 28 11 36 0
24 19 19 25 -6 13 -61 9 -80 -20 -112 l-24 -26 -47 35 c-26 20 -59 42 -75 50
-36 19 -136 42 -219 51 -74 8 -301 12 -342 6 -28 -4 -40 -22 -15 -22 6 0 30
-9 52 -19 l40 -19 -27 -11 c-16 -6 -28 -13 -28 -16 0 -3 18 -12 40 -21 22 -9
40 -20 40 -24 0 -4 -26 -17 -57 -28 -95 -35 -173 -114 -95 -96 27 7 27 6 -9
-32 -42 -45 -69 -93 -69 -124 0 -20 2 -20 37 9 44 37 69 42 53 11 -9 -17 -8
-20 9 -20 18 0 17 -5 -15 -66 -38 -72 -36 -95 3 -64 39 30 42 25 17 -27 -30
-63 -38 -93 -25 -93 6 0 18 12 28 28 9 15 35 46 57 70 43 45 72 56 61 22 -15
-47 10 -38 45 17 21 32 55 77 76 99 46 49 164 137 173 128 3 -3 -4 -14 -16
-24 -64 -52 -81 -69 -109 -110 -41 -59 -81 -162 -90 -228 -8 -62 4 -67 30 -12
26 54 37 50 30 -10 -7 -56 7 -67 26 -20 16 39 23 38 39 -5 16 -45 27 -44 41 3
18 54 26 58 46 23 33 -56 44 -47 40 32 -4 78 10 165 24 151 7 -8 11 -31 19
-106 2 -19 20 -5 30 22 5 17 14 30 19 30 12 0 40 -102 44 -153 1 -21 6 -41 10
-43 14 -9 25 39 27 121 1 44 4 81 5 83 5 5 56 -88 62 -115 9 -35 29 -22 32 20
4 43 7 45 33 15 l20 -23 -3 38 c-4 37 7 51 18 22 4 -8 10 -15 14 -15 13 0 17
31 9 73 -8 48 5 47 33 -3 38 -66 52 -42 23 40 -8 23 -15 46 -15 51 0 19 19 7
38 -23 l21 -32 6 27 c5 18 0 41 -14 70 -19 39 -38 61 -127 145 -15 14 -21 28
-16 35 4 7 18 29 31 49 30 49 44 40 26 -17 -13 -46 -12 -49 18 -46 11 2 17 -5
17 -18 0 -27 12 -27 29 1 l13 22 14 -25 c7 -13 13 -36 14 -51 0 -37 14 -35 30
2 8 19 10 52 7 90 -4 34 -2 60 3 60 18 0 59 -86 66 -140 4 -30 8 -64 10 -75 1
-11 3 -23 3 -27 1 -5 5 -8 10 -8 15 0 32 90 30 164 -2 68 -23 154 -55 224 -27
58 -7 47 47 -27 28 -39 55 -71 60 -71 9 0 -11 61 -35 108 -10 19 -12 33 -6 37
17 11 11 46 -16 92 -14 24 -22 48 -18 54 14 24 90 -79 124 -171 18 -47 29 -58
40 -41 13 22 1 100 -26 160 -27 60 -29 71 -13 71 15 0 32 -21 70 -87 17 -29
36 -53 41 -53 13 0 4 58 -16 102 -31 68 -46 111 -41 116 3 3 21 -10 40 -28 19
-18 37 -31 41 -28 3 4 0 33 -6 65 -34 166 -172 316 -291 316 -43 0 -49 9 -20
29 72 51 118 203 121 407 0 18 3 22 11 14 7 -7 11 -43 10 -87 -1 -42 2 -76 5
-76 4 0 23 19 44 43 27 29 42 39 49 32 8 -8 -2 -28 -33 -69 -56 -75 -126 -192
-126 -211 0 -25 13 -16 54 37 43 55 54 52 37 -9 -13 -44 -14 -83 -3 -83 4 0
20 24 35 53 15 30 45 72 67 95 63 68 61 56 -6 -53 -21 -34 -55 -145 -48 -157
4 -6 21 12 38 41 33 53 102 131 116 131 4 0 -5 -31 -20 -69 -15 -37 -30 -83
-33 -102 -3 -19 -8 -53 -12 -76 -11 -62 6 -53 38 21 16 35 37 72 47 81 19 17
19 16 15 -49 -4 -65 6 -116 23 -116 5 0 10 21 11 47 2 62 9 98 26 136 13 30
14 27 11 -52 -3 -87 1 -121 14 -121 4 0 12 16 17 36 7 31 21 47 24 27 2 -17
20 -43 29 -43 6 0 10 17 10 38 0 44 9 82 20 82 4 0 12 -18 19 -40 10 -35 27
-58 35 -49 2 2 6 32 9 67 8 82 41 146 94 184 23 17 44 37 48 46 10 26 -36 70
-107 104 -61 27 -62 40 -2 22 63 -19 137 -61 171 -96 l28 -30 -35 -26 c-94
-71 -148 -160 -153 -252 -2 -46 -4 -50 -37 -64 -19 -7 -64 -26 -99 -41 -79
-32 -132 -70 -171 -121 -45 -60 -40 -84 8 -39 35 33 102 65 135 65 37 0 34
-10 -11 -40 -69 -46 -111 -82 -137 -119 -40 -59 -30 -67 31 -26 39 26 109 49
123 41 5 -3 6 -16 4 -29 -4 -18 -15 -28 -46 -37 -163 -48 -270 -148 -311 -287
-18 -64 -2 -73 29 -16 27 49 47 56 35 11 -20 -72 -22 -101 -7 -95 11 4 16 -5
21 -34 6 -38 18 -49 31 -29 12 19 23 10 30 -26 5 -27 9 -34 18 -25 6 6 12 21
14 33 8 52 25 98 33 93 6 -4 10 -13 10 -22 0 -33 24 -93 37 -93 8 0 12 4 8 9
-3 5 0 13 6 16 6 4 13 -2 16 -14 8 -31 20 -17 28 32 4 23 12 50 17 61 9 17 11
16 29 -12 10 -17 28 -64 40 -104 25 -83 26 -85 39 -72 11 11 18 58 19 122 2
84 56 11 67 -90 4 -32 10 -58 13 -58 11 0 38 53 54 106 22 75 15 183 -17 268
-29 77 -29 76 -17 76 5 0 25 -35 46 -77 l37 -77 29 35 c18 21 29 28 29 18 0
-8 -4 -19 -9 -25 -26 -28 -49 -148 -43 -231 3 -32 20 -29 28 5 4 15 16 45 28
67 l21 40 5 -85 c5 -92 8 -93 34 -12 10 28 22 52 27 52 5 0 9 -27 9 -60 0 -33
4 -60 10 -60 17 0 48 142 50 228 0 7 4 11 9 7 6 -3 9 -62 8 -135 -1 -72 1
-130 6 -130 11 0 32 59 36 103 4 37 58 -57 80 -140 18 -68 32 -52 26 30 -6 84
-9 110 -19 155 -5 19 -4 32 2 32 12 0 52 -83 52 -107 0 -21 17 -50 24 -42 6 5
14 72 15 123 l1 30 33 -32 c18 -18 36 -30 40 -26 7 8 -28 105 -55 151 -11 18
-16 33 -11 33 13 0 77 -70 102 -112 39 -65 48 -43 20 46 -5 16 -9 38 -9 48 0
16 3 15 23 -8 40 -46 38 -12 -3 70 -127 254 -314 347 -586 291 -80 -17 -94
-15 -89 13 2 9 4 21 4 25 1 4 10 3 22 -3 34 -19 40 -7 19 34 -24 49 -20 55 13
22 15 -14 29 -26 33 -26 3 0 4 20 2 45 -4 40 -3 43 13 35 9 -6 23 -23 31 -40
16 -37 28 -39 28 -2 0 34 -30 98 -63 137 -15 16 -25 31 -23 33 8 7 81 -37 113
-67 17 -17 40 -44 50 -61 18 -32 42 -40 44 -15 1 8 3 20 4 25 1 6 3 20 4 32 2
40 20 5 27 -52 3 -30 8 -57 10 -59 10 -11 37 31 59 90 l23 64 10 -40 c11 -41
24 -115 27 -150 3 -39 20 -15 35 49 8 36 17 66 21 66 4 0 18 -34 30 -75 13
-41 27 -75 31 -75 4 0 8 19 10 43 l3 42 16 -30 c17 -31 43 -136 41 -167 -1
-20 13 -24 23 -7 11 17 6 168 -8 247 -8 44 -9 71 -3 69 18 -6 65 -112 81 -184
16 -71 34 -96 36 -50 1 12 2 37 3 55 1 18 -5 63 -15 100 -9 37 -15 69 -12 72
6 6 93 -90 93 -102 0 -4 5 -8 11 -8 13 0 5 40 -17 84 -21 43 -17 50 14 26 24
-20 27 -20 30 -5 2 10 -10 44 -27 76 -33 63 -38 80 -19 61 20 -20 29 -14 22
14 -8 30 -3 29 53 -12 41 -31 43 -30 33 7 -11 37 -33 73 -69 113 l-26 29 28
-7 c66 -16 3 62 -73 90 -27 10 -80 17 -132 18 -90 1 -112 9 -58 21 60 13 26
31 -49 25 -38 -3 -14 19 35 31 24 6 44 15 44 19 0 10 -41 17 -90 16 -39 -2
-51 6 -30 19 18 11 10 25 -14 25 -20 0 -22 4 -18 27 l5 27 -27 -17 c-20 -14
-31 -15 -40 -8 -10 9 -19 0 -38 -36 -23 -46 -27 -48 -75 -54 -28 -4 -55 -9
-60 -12 -13 -8 -69 50 -59 60 4 5 27 8 51 7 27 -1 42 3 40 10 -2 6 -6 24 -9
39 -6 26 -5 27 14 17 11 -6 27 -24 36 -41 19 -37 25 -33 29 18 2 21 4 41 4 44
1 9 51 28 86 32 71 9 201 -31 277 -84 33 -24 38 -24 38 0 0 29 -75 90 -154
126 -76 35 -189 66 -269 74 -18 2 5 19 33 24 36 8 38 20 8 35 -22 10 -22 11
10 17 42 10 41 22 -5 34 -96 27 -227 -4 -375 -89 -45 -26 -84 -46 -86 -45 -9
8 33 68 81 116 65 64 155 119 255 156 67 26 89 42 60 44 -110 8 -220 -28 -327
-109 -48 -36 -81 -45 -81 -21 0 5 16 31 35 58 20 27 32 52 27 55 -5 3 -26 -10
-48 -29 -44 -39 -65 -44 -57 -15 12 45 -26 12 -134 -114 -35 -40 -62 -42 -41
-3 15 29 140 200 151 208 14 10 -9 20 -28 13 -14 -6 -16 -1 -12 40 7 61 -12
61 -43 -1 -20 -41 -25 -44 -28 -25 -5 33 -15 27 -36 -26 -26 -62 -85 -162 -96
-162 -5 0 2 26 14 58 27 68 39 125 27 120 -5 -2 -29 -29 -54 -60 -24 -32 -46
-55 -49 -52 -3 2 -3 26 0 52 5 42 4 46 -11 34 -9 -8 -19 -22 -22 -33 -12 -36
-31 -19 -43 39 -14 68 -56 162 -73 162 -7 0 -9 -8 -5 -22z"/>
<path d="M1889 4298 c-1 -17 -1 -708 0 -775 l1 -52 159 1 159 1 0 418 0 419
-159 0 c-120 0 -159 -3 -160 -12z"/>
<path d="M1889 3088 c0 -16 0 -266 0 -558 0 -291 0 -540 0 -553 l1 -22 723 1
c397 0 727 -2 734 -4 8 -3 12 -25 11 -68 l-2 -63 -55 -28 c-65 -31 -161 -124
-193 -186 -36 -70 -56 -165 -53 -242 2 -38 5 -77 7 -85 41 -163 161 -292 317
-341 214 -66 453 36 555 238 64 128 60 312 -11 433 -41 69 -117 144 -183 179
-63 34 -61 30 -62 119 0 18 3 36 7 40 3 4 267 7 585 7 l578 0 28 -60 c50 -104
170 -207 281 -239 110 -33 230 -23 338 29 124 59 230 196 254 327 42 229 -89
454 -307 527 -210 71 -438 -14 -552 -205 l-35 -59 -1322 0 c-1317 0 -1323 0
-1323 20 -1 11 -1 199 -1 418 -1 218 -4 398 -7 398 -4 1 -76 2 -159 3 l-153 2
-1 -28z m3463 -857 c51 -20 87 -85 81 -145 -8 -75 -66 -126 -143 -126 -77 0
-130 51 -138 131 -10 110 92 182 200 140z m-1785 -716 c111 -47 126 -176 30
-249 -112 -86 -276 56 -209 179 23 44 80 81 130 84 7 1 29 -6 49 -14z"/>
</g>
</svg>
